<svg width="22" height="24" viewBox="0 0 22 24" fill="none" xmlns="http://www.w3.org/2000/svg">
<path d="M20.5091 4.36364H16.5818V3.05455C16.5818 2.24443 16.26 1.46749 15.6872 0.894656C15.1143 0.321817 14.3374 0 13.5273 0H8.29091C7.48079 0 6.70386 0.321817 6.13102 0.894656C5.55818 1.46749 5.23636 2.24443 5.23636 3.05455V4.36364H1.30909C0.961898 4.36364 0.628926 4.50156 0.383424 4.74706C0.137922 4.99256 0 5.32553 0 5.67273C0 6.01992 0.137922 6.35289 0.383424 6.59839C0.628926 6.8439 0.961898 6.98182 1.30909 6.98182H1.74545V21.8182C1.74545 22.3968 1.97532 22.9518 2.38449 23.361C2.79366 23.7701 3.34862 24 3.92727 24H17.8909C18.4696 24 19.0245 23.7701 19.4337 23.361C19.8429 22.9518 20.0727 22.3968 20.0727 21.8182V6.98182H20.5091C20.8563 6.98182 21.1893 6.8439 21.4348 6.59839C21.6803 6.35289 21.8182 6.01992 21.8182 5.67273C21.8182 5.32553 21.6803 4.99256 21.4348 4.74706C21.1893 4.50156 20.8563 4.36364 20.5091 4.36364ZM7.85455 3.05455C7.85455 2.93881 7.90052 2.82782 7.98235 2.74599C8.06419 2.66416 8.17518 2.61818 8.29091 2.61818H13.5273C13.643 2.61818 13.754 2.66416 13.8358 2.74599C13.9177 2.82782 13.9636 2.93881 13.9636 3.05455V4.36364H7.85455V3.05455ZM17.4545 21.3818H4.36364V6.98182H17.4545V21.3818ZM9.6 10.4727V17.4545C9.6 17.8017 9.46208 18.1347 9.21658 18.3802C8.97107 18.6257 8.6381 18.7636 8.29091 18.7636C7.94372 18.7636 7.61074 18.6257 7.36524 18.3802C7.11974 18.1347 6.98182 17.8017 6.98182 17.4545V10.4727C6.98182 10.1255 7.11974 9.79256 7.36524 9.54706C7.61074 9.30156 7.94372 9.16364 8.29091 9.16364C8.6381 9.16364 8.97107 9.30156 9.21658 9.54706C9.46208 9.79256 9.6 10.1255 9.6 10.4727ZM14.8364 10.4727V17.4545C14.8364 17.8017 14.6984 18.1347 14.4529 18.3802C14.2074 18.6257 13.8745 18.7636 13.5273 18.7636C13.1801 18.7636 12.8471 18.6257 12.6016 18.3802C12.3561 18.1347 12.2182 17.8017 12.2182 17.4545V10.4727C12.2182 10.1255 12.3561 9.79256 12.6016 9.54706C12.8471 9.30156 13.1801 9.16364 13.5273 9.16364C13.8745 9.16364 14.2074 9.30156 14.4529 9.54706C14.6984 9.79256 14.8364 10.1255 14.8364 10.4727Z" fill="#020611"/>
</svg>
